<?xml version="1.0" encoding="UTF-8"?>
<svg id="Layer_2" data-name="Layer 2" xmlns="http://www.w3.org/2000/svg" viewBox="0 0 59.7 59.7">
  <defs>
    <style>
      .cls-1 {
        fill: #88cfbd;
      }

      .cls-2 {
        fill: #8686c0;
      }

      .cls-3 {
        fill: #e6e7e8;
      }
    </style>
  </defs>
  <g id="Layer_1-2" data-name="Layer 1">
    <g>
      <rect class="cls-3" width="10.34" height="10.34"/>
      <rect class="cls-3" x="12.34" width="10.34" height="10.34"/>
      <rect class="cls-3" x="24.68" width="10.34" height="10.34"/>
      <rect class="cls-3" y="12.34" width="10.34" height="10.34"/>
      <rect class="cls-3" x="12.34" y="12.34" width="10.34" height="10.34"/>
      <rect class="cls-2" y="24.68" width="10.34" height="10.34"/>
      <rect class="cls-2" x="12.34" y="24.68" width="10.34" height="10.34"/>
      <rect class="cls-2" x="24.68" y="24.68" width="10.34" height="10.34"/>
      <rect class="cls-3" x="24.68" y="12.34" width="10.34" height="10.34"/>
      <rect class="cls-1" x="37.01" width="10.34" height="10.34"/>
      <rect class="cls-3" x="37.01" y="24.68" width="10.34" height="10.34"/>
      <rect class="cls-3" x="37.01" y="12.34" width="10.34" height="10.34"/>
      <rect class="cls-1" x="49.35" width="10.34" height="10.34"/>
      <rect class="cls-3" x="49.35" y="24.68" width="10.34" height="10.34"/>
      <rect class="cls-1" x="49.35" y="12.34" width="10.34" height="10.34"/>
      <rect class="cls-2" y="37.01" width="10.34" height="10.34"/>
      <rect class="cls-2" x="12.34" y="37.01" width="10.34" height="10.34"/>
      <rect class="cls-2" y="49.35" width="10.34" height="10.34"/>
      <rect class="cls-2" x="12.34" y="49.35" width="10.34" height="10.34"/>
      <rect class="cls-2" x="24.68" y="49.35" width="10.34" height="10.34"/>
      <rect class="cls-2" x="24.68" y="37.01" width="10.34" height="10.34"/>
      <rect class="cls-2" x="37.01" y="49.35" width="10.34" height="10.34"/>
      <rect class="cls-2" x="37.01" y="37.01" width="10.34" height="10.34"/>
      <rect class="cls-3" x="49.35" y="49.35" width="10.34" height="10.34"/>
      <rect class="cls-3" x="49.35" y="37.01" width="10.34" height="10.34"/>
    </g>
  </g>
</svg>