<?xml version="1.0" encoding="UTF-8"?>
<svg id="Layer_2" data-name="Layer 2" xmlns="http://www.w3.org/2000/svg" viewBox="0 0 59.95 59.95">
  <defs>
    <style>
      .cls-1, .cls-2 {
        fill: #88cfbd;
      }

      .cls-3, .cls-4 {
        fill: #8686c0;
      }

      .cls-3, .cls-2 {
        stroke: #1c75bc;
        stroke-miterlimit: 10;
        stroke-width: .25px;
      }

      .cls-5 {
        opacity: .8;
      }

      .cls-6 {
        fill: #e6e7e8;
      }
    </style>
  </defs>
  <g id="Layer_1-2" data-name="Layer 1">
    <g>
      <g>
        <rect class="cls-6" x=".13" y=".13" width="10.34" height="10.34"/>
        <rect class="cls-6" x="12.46" y=".13" width="10.34" height="10.34"/>
        <rect class="cls-6" x="24.8" y=".13" width="10.34" height="10.34"/>
        <rect class="cls-6" x=".13" y="12.46" width="10.34" height="10.34"/>
        <rect class="cls-6" x="12.46" y="12.46" width="10.34" height="10.34"/>
        <rect class="cls-4" x=".13" y="24.8" width="10.34" height="10.34"/>
        <rect class="cls-4" x="12.46" y="24.8" width="10.34" height="10.34"/>
        <rect class="cls-4" x="24.8" y="24.8" width="10.34" height="10.34"/>
        <rect class="cls-6" x="24.8" y="12.46" width="10.34" height="10.34"/>
        <rect class="cls-1" x="37.14" y=".13" width="10.34" height="10.34"/>
        <rect class="cls-6" x="37.14" y="24.8" width="10.34" height="10.34"/>
        <rect class="cls-6" x="37.14" y="12.46" width="10.34" height="10.34"/>
        <rect class="cls-1" x="49.48" y=".13" width="10.34" height="10.34"/>
        <rect class="cls-6" x="49.48" y="24.8" width="10.34" height="10.34"/>
        <rect class="cls-1" x="49.48" y="12.46" width="10.34" height="10.34"/>
        <rect class="cls-4" x=".13" y="37.14" width="10.34" height="10.34"/>
        <rect class="cls-4" x="12.46" y="37.14" width="10.34" height="10.34"/>
        <rect class="cls-4" x=".13" y="49.48" width="10.34" height="10.34"/>
        <rect class="cls-4" x="12.46" y="49.48" width="10.34" height="10.34"/>
        <rect class="cls-4" x="24.8" y="49.48" width="10.34" height="10.34"/>
        <rect class="cls-4" x="24.8" y="37.14" width="10.34" height="10.34"/>
        <rect class="cls-4" x="37.14" y="49.48" width="10.34" height="10.34"/>
        <rect class="cls-4" x="37.14" y="37.14" width="10.34" height="10.34"/>
        <rect class="cls-6" x="49.48" y="49.48" width="10.34" height="10.34"/>
        <rect class="cls-6" x="49.48" y="37.14" width="10.34" height="10.34"/>
      </g>
      <g class="cls-5">
        <rect class="cls-6" x=".12" y=".12" width="59.7" height="59.7"/>
        <path class="cls-3" d="M53.08,50.67c-.36-2.61-.82-5.81-2.58-9.7-1.75-3.86-.39-6.1-3.83-7.13-2.24-.67-4.53.05-7.01-1.46-3.98-2.42-4.47-7.28-7.08-8.62-3.56-1.84-5.8-.21-9.08.63-3.68.94-6.11.57-7.95-.34-3.52-1.74-3.81-1.59-5.54-1.88-3.4-.57-7.02-1.67-9.89-.71v38.35h49.41s2.79-1.05,3.54-2.65c.6-2.03.39-3.67,0-6.5ZM19.21,43.74c-.77.64-1.57.49-5.5,0-2.97-.37-3.62-.43-3.93-1.01-.49-.93.35-2.34,1.01-3.07,2.05-2.28,6.51-2.53,8.41-.51.18.19,1.09,1.16,1.01,2.51,0,.12-.1,1.33-1.01,2.09Z"/>
        <path class="cls-2" d="M59.82.12h-18.85s-2.49.33-2.94,1.42c-.6,1.48,1.88,2.98,1.71,6.77-.07,1.6-.94,1.81-.67,2.92.57,2.33,4.49,1.63,8.07,4.86.65.58,1.66,2.11,3.7,5.17,2.65,3.98,3.25,5.42,4.71,5.67,1.96.34,4.26-2.21,4.26-2.21V.12Z"/>
      </g>
    </g>
  </g>
</svg>