<?xml version="1.0" encoding="UTF-8"?>
<svg id="Layer_2" data-name="Layer 2" xmlns="http://www.w3.org/2000/svg" viewBox="0 0 1352.69 113.83">
  <defs>
    <style>
      .cls-1 {
        fill: #808285;
      }

      .cls-2 {
        fill: #e6e7e8;
      }

      .cls-3 {
        fill: #bcbec0;
      }
    </style>
  </defs>
  <g id="Layer_1-2" data-name="Layer 1">
    <g>
      <rect class="cls-2" width="20.33" height="20.33"/>
      <rect class="cls-2" x="93.5" width="20.33" height="20.33"/>
      <rect class="cls-2" x="140.25" width="20.33" height="20.33"/>
      <rect class="cls-2" x="233.75" width="20.33" height="20.33"/>
      <rect class="cls-2" x="303.87" width="20.33" height="20.33"/>
      <rect class="cls-2" x="327.25" width="20.33" height="20.33"/>
      <rect class="cls-2" x="350.62" width="20.33" height="20.33"/>
      <rect class="cls-2" x="420.75" width="20.33" height="20.33"/>
      <rect class="cls-2" x="514.25" width="20.33" height="20.33"/>
      <rect class="cls-2" x="584.37" width="20.33" height="20.33"/>
      <rect class="cls-2" x="607.75" width="20.33" height="20.33"/>
      <rect class="cls-2" x="631.12" width="20.33" height="20.33"/>
      <rect class="cls-2" y="23.37" width="20.33" height="20.33"/>
      <rect class="cls-2" x="93.5" y="23.37" width="20.33" height="20.33"/>
      <rect class="cls-2" x="140.25" y="23.37" width="20.33" height="20.33"/>
      <rect class="cls-2" x="233.75" y="23.37" width="20.33" height="20.33"/>
      <rect class="cls-2" x="280.5" y="23.37" width="20.33" height="20.33"/>
      <rect class="cls-2" x="374" y="23.37" width="20.33" height="20.33"/>
      <rect class="cls-2" x="420.75" y="23.37" width="20.33" height="20.33"/>
      <rect class="cls-2" x="444.12" y="23.37" width="20.33" height="20.33"/>
      <rect class="cls-2" x="514.25" y="23.37" width="20.33" height="20.33"/>
      <rect class="cls-2" x="561" y="23.37" width="20.33" height="20.33"/>
      <rect class="cls-2" y="46.75" width="20.33" height="20.33"/>
      <rect class="cls-2" x="23.37" y="46.75" width="20.33" height="20.33"/>
      <rect class="cls-2" x="46.75" y="46.75" width="20.33" height="20.33"/>
      <rect class="cls-2" x="70.12" y="46.75" width="20.33" height="20.33"/>
      <rect class="cls-2" x="93.5" y="46.75" width="20.33" height="20.33"/>
      <rect class="cls-2" x="140.25" y="46.75" width="20.33" height="20.33"/>
      <rect class="cls-2" x="233.75" y="46.75" width="20.33" height="20.33"/>
      <rect class="cls-2" x="280.5" y="46.75" width="20.33" height="20.33"/>
      <rect class="cls-2" x="303.87" y="46.75" width="20.33" height="20.33"/>
      <rect class="cls-2" x="327.25" y="46.75" width="20.33" height="20.33"/>
      <rect class="cls-2" x="350.62" y="46.75" width="20.33" height="20.33"/>
      <rect class="cls-2" x="374" y="46.75" width="20.33" height="20.33"/>
      <rect class="cls-2" x="420.75" y="46.75" width="20.33" height="20.33"/>
      <rect class="cls-2" x="467.5" y="46.75" width="20.33" height="20.33"/>
      <rect class="cls-2" x="514.25" y="46.75" width="20.33" height="20.33"/>
      <rect class="cls-2" x="561" y="46.75" width="20.33" height="20.33"/>
      <rect class="cls-2" x="607.75" y="46.75" width="20.33" height="20.33"/>
      <rect class="cls-2" x="631.12" y="46.75" width="20.33" height="20.33"/>
      <rect class="cls-2" x="654.5" y="46.75" width="20.33" height="20.33"/>
      <rect class="cls-2" y="70.12" width="20.33" height="20.33"/>
      <rect class="cls-2" x="93.5" y="70.12" width="20.33" height="20.33"/>
      <rect class="cls-2" x="140.25" y="70.12" width="20.33" height="20.33"/>
      <rect class="cls-2" x="233.75" y="70.12" width="20.33" height="20.33"/>
      <rect class="cls-2" x="280.5" y="70.12" width="20.33" height="20.33"/>
      <rect class="cls-2" x="374" y="70.12" width="20.33" height="20.33"/>
      <rect class="cls-2" x="420.75" y="70.12" width="20.33" height="20.33"/>
      <rect class="cls-2" x="490.87" y="70.12" width="20.33" height="20.33"/>
      <rect class="cls-2" x="514.25" y="70.12" width="20.33" height="20.33"/>
      <rect class="cls-2" x="561" y="70.12" width="20.33" height="20.33"/>
      <rect class="cls-2" x="654.5" y="70.12" width="20.33" height="20.33"/>
      <rect class="cls-2" y="93.5" width="20.33" height="20.33"/>
      <rect class="cls-2" x="93.5" y="93.5" width="20.33" height="20.33"/>
      <rect class="cls-2" x="163.62" y="93.5" width="20.33" height="20.33"/>
      <rect class="cls-2" x="187" y="93.5" width="20.33" height="20.33"/>
      <rect class="cls-2" x="210.37" y="93.5" width="20.33" height="20.33"/>
      <rect class="cls-2" x="280.5" y="93.5" width="20.33" height="20.33"/>
      <rect class="cls-2" x="374" y="93.5" width="20.33" height="20.33"/>
      <rect class="cls-2" x="420.75" y="93.5" width="20.33" height="20.33"/>
      <rect class="cls-2" x="514.25" y="93.5" width="20.33" height="20.33"/>
      <rect class="cls-2" x="584.37" y="93.5" width="20.33" height="20.33"/>
      <rect class="cls-2" x="607.75" y="93.5" width="20.33" height="20.33"/>
      <rect class="cls-2" x="631.12" y="93.5" width="20.33" height="20.33"/>
      <rect class="cls-2" x="701.24" y="93.5" width="20.33" height="20.33"/>
      <rect class="cls-2" x="841.49" width="20.33" height="20.33"/>
      <rect class="cls-2" x="1005.12" width="20.33" height="20.33"/>
      <rect class="cls-2" x="1028.49" width="20.33" height="20.33"/>
      <rect class="cls-2" x="1051.87" width="20.33" height="20.33"/>
      <rect class="cls-2" x="1121.99" width="20.33" height="20.33"/>
      <rect class="cls-2" x="1332.36" width="20.33" height="20.33"/>
      <rect class="cls-2" x="841.49" y="23.37" width="20.33" height="20.33"/>
      <rect class="cls-2" x="1075.24" y="23.37" width="20.33" height="20.33"/>
      <rect class="cls-2" x="1121.99" y="23.37" width="20.33" height="20.33"/>
      <rect class="cls-3" x="1308.99" y="23.37" width="20.33" height="20.33"/>
      <rect class="cls-1" x="1332.36" y="23.37" width="20.33" height="20.33"/>
      <rect class="cls-2" x="841.49" y="46.75" width="20.33" height="20.33"/>
      <rect class="cls-2" x="1005.12" y="46.75" width="20.33" height="20.33"/>
      <rect class="cls-2" x="1028.49" y="46.75" width="20.33" height="20.33"/>
      <rect class="cls-2" x="1051.87" y="46.75" width="20.33" height="20.33"/>
      <rect class="cls-2" x="1075.24" y="46.75" width="20.33" height="20.33"/>
      <rect class="cls-2" x="1121.99" y="46.75" width="20.33" height="20.33"/>
      <rect class="cls-2" x="1145.37" y="46.75" width="20.33" height="20.33"/>
      <rect class="cls-2" x="1168.74" y="46.75" width="20.33" height="20.33"/>
      <rect class="cls-2" x="1192.12" y="46.75" width="20.33" height="20.33"/>
      <rect class="cls-2" x="1308.99" y="46.75" width="20.33" height="20.33"/>
      <rect class="cls-2" x="841.49" y="70.12" width="20.33" height="20.33"/>
      <rect class="cls-2" x="981.74" y="70.12" width="20.33" height="20.33"/>
      <rect class="cls-2" x="1075.24" y="70.12" width="20.33" height="20.33"/>
      <rect class="cls-2" x="1121.99" y="70.12" width="20.33" height="20.33"/>
      <rect class="cls-2" x="1215.49" y="70.12" width="20.33" height="20.33"/>
      <rect class="cls-1" x="1285.62" y="70.12" width="20.33" height="20.33"/>
      <rect class="cls-3" x="1308.99" y="70.12" width="20.33" height="20.33"/>
      <rect class="cls-2" x="841.49" y="93.5" width="20.33" height="20.33"/>
      <rect class="cls-2" x="864.87" y="93.5" width="20.33" height="20.33"/>
      <rect class="cls-2" x="888.24" y="93.5" width="20.33" height="20.33"/>
      <rect class="cls-2" x="911.62" y="93.5" width="20.33" height="20.33"/>
      <rect class="cls-2" x="934.99" y="93.5" width="20.33" height="20.33"/>
      <rect class="cls-2" x="1005.12" y="93.5" width="20.33" height="20.33"/>
      <rect class="cls-2" x="1028.49" y="93.5" width="20.33" height="20.33"/>
      <rect class="cls-2" x="1051.87" y="93.5" width="20.33" height="20.33"/>
      <rect class="cls-2" x="1075.24" y="93.5" width="20.33" height="20.33"/>
      <rect class="cls-2" x="1121.99" y="93.5" width="20.33" height="20.33"/>
      <rect class="cls-2" x="1145.37" y="93.5" width="20.33" height="20.33"/>
      <rect class="cls-2" x="1168.74" y="93.5" width="20.33" height="20.33"/>
      <rect class="cls-2" x="1192.12" y="93.5" width="20.33" height="20.33"/>
      <rect class="cls-2" x="1285.62" y="93.5" width="20.33" height="20.33"/>
      <rect class="cls-2" x="724.62" y="93.5" width="20.33" height="20.33"/>
      <rect class="cls-2" x="747.99" y="93.5" width="20.33" height="20.33"/>
      <rect class="cls-2" x="771.37" y="93.5" width="20.33" height="20.33"/>
      <rect class="cls-2" x="794.74" y="93.5" width="20.33" height="20.33"/>
    </g>
  </g>
</svg>